<?xml version="1.0" encoding="utf-8"?><svg xmlns="http://www.w3.org/2000/svg" xmlns:xlink="http://www.w3.org/1999/xlink"><symbol viewBox="0 0 180 110" id="gulp-logo-word" xmlns="http://www.w3.org/2000/svg"><g clip-path="url(#aclip0_7711_2)"><path d="M44.52 0.205002C42 0.205002 39.4575 0.790003 36.9225 1.87C34.3725 2.9575 31.8525 4.465 29.37 6.4075C26.7354 8.46756 24.2997 10.7701 22.095 13.285C19.7475 15.94 17.52 18.8725 15.4425 22.015C13.3725 25.165 11.445 28.5175 9.5925 31.915H9.585V31.9225C7.7925 35.47 6.225 39.1225 4.86 42.835C3.51 46.555 2.43 50.2825 1.575 54.0625C0.75 57.8125 0.24 61.465 0.075 65.05C0.029789 65.2748 0.00468983 65.5032 0 65.7325L0 66.445C0 68.4025 0.285 70.42 0.5625 72.265V72.28L0.57 72.295C1.08 74.26 1.8825 76.075 2.895 77.6725C3.93325 79.2498 5.30887 80.5767 6.9225 81.5575C8.55 82.5925 10.4775 83.11 12.7425 83.11C14.715 83.11 16.7625 82.66 18.87 81.7225C20.9625 80.785 23.0475 79.5625 25.125 78.13C27.135 76.69 29.145 75.04 31.08 73.18C32.6325 71.74 34.05 70.24 35.4525 68.755L33.9825 73.315C33.345 75.5125 32.6325 77.635 32.055 79.7125C31.4175 81.7675 30.915 83.6125 30.4875 85.2475C30.06 86.8675 29.7675 87.9625 29.7675 88.6675V90.28C29.7675 92.0875 29.955 93.3625 30.5475 94.165C30.8422 94.541 31.2228 94.8408 31.6574 95.0392C32.092 95.2375 32.5679 95.3287 33.045 95.305C33.7682 95.2944 34.4673 95.0437 35.0325 94.5925C35.64 94.1425 36.1575 93.565 36.675 92.9125V92.8975L36.69 92.89C37.1175 92.2375 37.5525 91.54 37.92 90.805C38.295 90.0475 38.505 89.38 38.7225 88.7875L39.225 86.98L40.2975 83.2675L41.7225 78.3025C42.2925 76.45 42.7875 74.59 43.425 72.7L45.1125 67.075C45.6525 65.245 46.1625 63.5875 46.635 62.1175C47.1075 60.6175 47.505 59.4025 47.835 58.42C47.985 57.9325 48.135 57.55 48.24 57.265L48.345 57.025L48.645 57.16L48.78 56.8C49.35 55.165 49.9125 53.5975 50.4825 52.105C51.0525 50.605 51.6225 49.105 52.0575 47.6275C53.1685 44.5237 53.7269 41.2491 53.7075 37.9525C53.7152 37.296 53.5876 36.645 53.3325 36.04C53.141 35.5189 52.8211 35.0546 52.4025 34.69C52.0228 34.3542 51.5788 34.099 51.0975 33.94C50.637 33.7916 50.1563 33.7157 49.6725 33.715C48.6515 33.7301 47.6605 34.0631 46.8375 34.6675C45.87 35.3125 45.15 36.385 44.61 37.8325L40.485 51.07C39.7927 52.4118 38.9979 53.6981 38.1075 54.9175C34.4644 60.049 30.1512 64.6775 25.2825 68.665C23.8902 69.8264 22.3823 70.8417 20.7825 71.695C19.6427 72.3653 18.354 72.7416 17.0325 72.79C16.1859 72.8158 15.3573 72.5423 14.6925 72.0175C14.0038 71.4825 13.4747 70.7693 13.1625 69.955C12.7857 69.0238 12.5286 68.0485 12.3975 67.0525C12.2574 66.0033 12.1872 64.946 12.1875 63.8875C12.1875 60.79 12.6825 57.3325 13.6725 53.4325C14.6625 49.5325 16.0125 45.6325 17.715 41.59C19.4175 37.54 21.405 33.64 23.61 29.8075C25.8075 25.975 28.1475 22.57 30.555 19.5925C32.955 16.6225 35.355 14.2975 37.83 12.4675C40.2825 10.6375 42.48 9.7525 44.595 9.7525C45.9184 9.73304 47.2171 10.1119 48.3225 10.84C49.4625 11.575 50.4975 12.8125 51.4725 14.56C52.4775 16.5025 53.49 18.0025 54.36 19.0975C55.26 20.2225 56.3025 20.8 57.42 20.8C58.0265 20.806 58.6257 20.6676 59.1682 20.3964C59.7107 20.1251 60.1809 19.7288 60.54 19.24C61.4025 18.205 61.815 16.7875 61.815 15.07C61.815 14.35 61.74 13.57 61.59 12.7675C61.4196 11.8681 61.0618 11.0146 60.54 10.2625C58.185 6.7375 55.6575 4.21 52.965 2.5825H52.95C50.4009 1.04921 47.4946 0.228143 44.52 0.205002ZM126.727 6.6175C125.64 6.63397 124.577 6.94501 123.652 7.5175L123.637 7.525C122.516 8.31538 121.68 9.44639 121.252 10.75L107.085 46.435L103.957 54.2725C102.81 57.1225 101.745 59.9725 100.605 62.8825C100.082 64.2322 99.6414 65.6122 99.285 67.015C98.6607 67.5739 98.0178 68.1117 97.3575 68.6275C95.805 69.8275 94.335 70.735 92.94 71.365H92.925C91.8584 71.9529 90.6694 72.2842 89.4525 72.3325C88.8375 72.3325 88.425 72.1825 88.1625 71.935C87.9 71.6875 87.7425 71.305 87.7425 70.69C87.7425 69.3025 87.9525 67.765 88.3725 66.0775C88.8 64.4275 89.3625 62.695 90 60.955C90.6113 59.2016 91.2969 57.4751 92.055 55.78L94.125 50.95C94.77 49.45 95.2725 48.085 95.7 46.945C96.0808 46.047 96.3065 45.091 96.3675 44.1175C96.3834 42.9363 96.0061 41.7833 95.295 40.84C94.9561 40.3868 94.5138 40.0211 94.0051 39.7732C93.4963 39.5254 92.9358 39.4026 92.37 39.415C91.8255 39.4024 91.2856 39.5172 90.7934 39.7503C90.3012 39.9834 89.8703 40.3283 89.535 40.7575C88.7329 41.6969 88.0894 42.7609 87.63 43.9075C87.0298 45.2114 86.5259 46.5575 86.1225 47.935C85.7025 49.36 85.14 50.695 84.57 51.9475C83.7225 53.8225 82.725 55.8775 81.45 58.1425C80.2028 60.3705 78.7861 62.4993 77.2125 64.51C75.66 66.46 73.9725 68.1025 72.15 69.415C70.5312 70.646 68.5586 71.322 66.525 71.3425C65.9025 71.3425 65.49 71.1175 65.2725 70.6825C65.0048 70.161 64.8708 69.5811 64.8825 68.995C64.9575 67.465 65.2275 65.8525 65.7225 64.1725C66.2175 62.5075 66.78 60.85 67.4175 59.2225C68.055 57.6475 68.7675 56.0425 69.54 54.535C70.3275 53.0275 71.04 51.6025 71.745 50.335V50.3275L73.605 46.8025C74.0071 46.0054 74.3457 45.1779 74.6175 44.3275L74.625 44.3125C74.7 44.0125 74.7825 43.63 74.7825 43.2175C74.7934 42.6559 74.6535 42.1017 74.3775 41.6125V41.605L74.37 41.5975C74.0924 41.1466 73.7269 40.7562 73.2953 40.4495C72.8636 40.1428 72.3746 39.9262 71.8575 39.8125C71.1142 39.5796 70.3258 39.5281 69.5586 39.6626C68.7913 39.797 68.0674 40.1133 67.4475 40.585C66.4575 41.2675 65.715 42.325 65.055 43.78C62.8859 48.2356 60.9091 52.7823 59.13 57.4075C57.705 61.195 56.7075 64.2625 55.995 66.625C55.4531 68.341 55.0444 70.0962 54.7725 71.875V71.8825L54.6225 73.615V73.63C54.6225 75.235 54.84 76.63 55.2975 77.755V77.77C55.8075 78.8725 56.4075 79.765 57.165 80.4475C57.9426 81.1267 58.8666 81.617 59.865 81.88C60.855 82.18 61.89 82.3225 62.94 82.3225C65.2725 82.3225 67.425 81.8875 69.3975 81.16C71.37 80.4325 73.155 79.42 74.7525 78.19C76.3141 76.9878 77.731 75.6086 78.975 74.08C79.875 73.03 80.55 71.9425 81.225 70.8775C80.925 72.5275 80.64 74.155 80.64 75.4825C80.64 77.9575 81.1125 79.7575 82.155 80.86C82.66 81.3873 83.27 81.8027 83.9458 82.0791C84.6215 82.3556 85.3477 82.4871 86.0775 82.465C87.6375 82.465 89.37 82.0375 91.2825 81.19C93.18 80.3425 95.1075 79.225 97.0575 77.845C97.545 77.5075 98.01 77.1475 98.4825 76.7875L98.52 77.0575C98.7234 77.9965 99.1053 78.8876 99.645 79.6825L99.66 79.6975C100.26 80.44 100.935 81.0475 101.842 81.4975C102.899 81.9858 104.055 82.2195 105.217 82.18C107.254 82.1477 109.262 81.7011 111.12 80.8675H111.135C113.145 79.93 115.162 78.775 117.172 77.2675C119.306 75.6494 121.34 73.9038 123.262 72.04L123.337 71.9725C122.992 72.7675 122.662 73.5625 122.302 74.365C120.66 77.995 118.987 81.655 117.247 85.3975C115.5 89.1475 113.752 92.8525 112.117 96.5575L112.11 96.58L112.102 96.595C111.869 97.2996 111.609 97.9951 111.322 98.68C111.052 99.37 110.685 100.09 110.46 100.915C110.182 101.665 109.897 102.407 109.747 103.217C109.522 104.042 109.447 104.845 109.447 105.58C109.447 107.14 109.89 108.332 110.737 108.932C111.616 109.528 112.661 109.83 113.722 109.795C114.637 109.795 115.477 109.57 116.235 109.195L116.242 109.187C116.995 108.762 117.663 108.203 118.215 107.537C118.785 106.862 119.265 106.097 119.7 105.227C120.131 104.335 120.516 103.421 120.855 102.49L120.87 102.46V102.43C120.93 102.152 121.147 101.522 121.5 100.6L122.715 97.33L124.14 93.49L125.632 89.575L126.907 86.3125C127.267 85.3825 127.485 84.7375 127.62 84.4C127.762 84.115 127.98 83.68 128.257 82.975L129.255 80.6275L130.462 77.8525L131.752 75.0025L132.817 72.4375L133.59 70.7425L133.597 70.735C134.235 69.46 135.007 68.05 135.862 66.49C136.785 64.9375 137.775 63.445 138.832 61.8925C139.972 60.3925 141.097 58.9075 142.305 57.4975C143.512 56.095 144.78 54.895 146.055 53.7625C147.352 52.7125 148.65 51.7975 149.962 51.175C151.12 50.5736 152.401 50.2453 153.705 50.215C154.35 50.215 154.777 50.35 155.04 50.5075C155.144 50.6065 155.226 50.7266 155.281 50.8598C155.335 50.993 155.36 51.1362 155.355 51.28C155.355 51.88 155.032 52.8325 154.275 53.9275C153.495 55.1275 152.58 56.41 151.447 57.8275C150.232 59.2525 149.025 60.745 147.675 62.305C146.325 63.88 145.035 65.4475 143.82 67.015C142.702 68.4603 141.67 69.9704 140.73 71.5375V71.545C139.972 72.7614 139.45 74.11 139.192 75.52V75.5725C139.186 75.628 139.176 75.6831 139.162 75.7375C139.14 75.8125 139.117 75.8425 139.117 76V76.4275C139.117 78.355 139.807 79.915 141.172 80.9725C142.545 82.1125 144.48 82.6225 146.872 82.6225C149.49 82.6225 151.897 82.1125 154.147 81.0925C156.382 80.0875 158.685 78.7225 161.047 76.9225H161.055C163.417 75.1525 165.855 73.045 168.487 70.6C171.045 68.1625 174.03 65.4625 177.367 62.5C178.243 61.8079 178.921 60.8973 179.332 59.86C179.775 58.825 180 57.7975 180 56.785C180.016 55.9346 179.803 55.0955 179.385 54.355C179.206 54.0174 178.938 53.7353 178.61 53.5395C178.282 53.3438 177.907 53.2419 177.525 53.245C177.096 53.2556 176.674 53.366 176.295 53.5675C175.897 53.7625 175.477 54.0175 175.02 54.325C174.24 54.5725 175.147 54.7975 175.245 55.135C171.21 58.7425 167.715 61.7875 164.947 64.18C162.097 66.67 159.705 68.59 157.852 70.09C156.48 71.2 155.043 72.2269 153.547 73.165C152.557 73.7575 151.8 74.0425 151.38 74.0425C150.795 74.0425 150.39 73.8925 150.21 73.72C150.102 73.6154 150.018 73.4891 149.962 73.3495C149.906 73.2099 149.881 73.0601 149.887 72.91C149.939 72.7076 150.028 72.5167 150.15 72.3475C150.419 71.9497 150.712 71.569 151.027 71.2075L154.012 67.72C155.227 66.3625 156.442 64.8625 157.792 63.22C159.142 61.57 160.417 59.8675 161.557 58.105C162.757 56.38 163.695 54.6025 164.482 52.855C165.24 51.1075 165.652 49.4425 165.652 47.86C165.676 46.7432 165.402 45.6403 164.857 44.665C164.342 43.7689 163.632 42.9999 162.78 42.415C161.955 41.815 160.995 41.365 159.967 41.0575H159.96C157.367 40.3329 154.604 40.5263 152.137 41.605C150.554 42.265 149.05 43.1002 147.652 44.095C146.17 45.1289 144.754 46.2562 143.415 47.47C142.44 48.3891 141.489 49.3344 140.565 50.305L140.835 48.985C140.947 48.4375 141.022 47.9275 141.09 47.4325V47.425C141.165 46.915 141.187 46.555 141.187 46.3075C141.244 45.2881 140.906 44.2862 140.242 43.51V43.5025H140.227C139.575 42.8275 138.562 42.535 137.227 42.535C136.312 42.535 135.427 43.06 134.677 43.96C133.903 44.9269 133.242 45.9787 132.705 47.095C132.126 48.2627 131.62 49.465 131.19 50.695L130.192 53.53V53.5375C129.847 54.73 129.465 55.945 129.067 57.175C128.963 57.2032 128.86 57.2383 128.76 57.28C128.37 57.414 128.019 57.6434 127.74 57.9475L127.762 57.925C126.877 58.78 125.88 59.7775 124.77 60.8425C123.667 61.9075 122.497 62.9725 121.29 64.0375C120.075 65.035 118.845 66.1 117.615 67.09C116.4 68.065 115.215 68.9275 114.082 69.6775C112.957 70.435 111.907 71.0275 110.94 71.485C110.222 71.8643 109.433 72.0891 108.622 72.145C108.172 72.145 107.985 72.04 107.872 71.83H107.865C107.686 71.4697 107.603 71.0692 107.625 70.6675C107.625 69.82 107.775 68.845 108.105 67.7425C108.42 66.6475 108.75 65.6875 109.08 64.855L109.29 64.63L112.095 57.49C113.16 54.7525 114.3 51.895 115.582 48.85L119.43 39.445C120.705 36.2425 121.995 33.145 123.202 30.19L126.765 21.925C127.83 19.405 128.76 17.2825 129.54 15.565L129.532 15.58C129.975 14.7025 130.26 13.8775 130.545 13.18V13.165C130.802 12.4498 130.942 11.6975 130.957 10.9375C130.957 9.4675 130.5 8.3125 129.607 7.615C128.793 6.95763 127.774 6.60488 126.727 6.6175Z"/></g><defs><clipPath id="aclip0_7711_2"><rect width="180" height="110"/></clipPath></defs></symbol></svg>